# xmcd
#
# Track frame offsets: 
#        150
#        11193
#        20295
#        28748
#        38006
#        47232
#        58115
#        67944
#        77018
#        86655
#        96316
#
# Disc length: 1404 seconds
#
# Revision: 0
# Processed by: cddbd v1.5.2PL0 Copyright (c) Steve Scherf et al.
# Submitted via: ExactAudioCopy v0.99pb4
#
DISCID=87057a0b
DTITLE=The Geezinslaw Brothers - Chubby
DYEAR=1968
DGENRE=Country
TTITLE0=Chubby (Please Take Your Love to Town)
TTITLE1=The Doodlin' Song
TTITLE2=Tender-Hearted Me
TTITLE3=Unmitigated Gall
TTITLE4=Big Harlan Taylor
TTITLE5=If They Could See the Self Come Out of Me
TTITLE6=We Split the Blanket
TTITLE7=I Couldn't Spell Yuuk
TTITLE8=How Come I Stutter
TTITLE9=The Great Snowman
TTITLE10=My Old Buddy
EXTD=
EXTT0=
EXTT1=
EXTT2=
EXTT3=
EXTT4=
EXTT5=
EXTT6=
EXTT7=
EXTT8=
EXTT9=
EXTT10=
PLAYORDER=
